<!DOCTYPE svg PUBLIC "-//W3C//DTD SVG 1.1//EN" "http://www.w3.org/Graphics/SVG/1.1/DTD/svg11.dtd">
<!-- Uploaded to: SVG Repo, www.svgrepo.com, Transformed by: SVG Repo Mixer Tools -->
<svg fill="#ffffff" version="1.1" id="Capa_1" xmlns="http://www.w3.org/2000/svg" xmlns:xlink="http://www.w3.org/1999/xlink" width="800px" height="800px" viewBox="0 0 28.314 28.314" xml:space="preserve" stroke="#ffffff">
<g id="SVGRepo_bgCarrier" stroke-width="0"/>
<g id="SVGRepo_tracerCarrier" stroke-linecap="round" stroke-linejoin="round"/>
<g id="SVGRepo_iconCarrier"> <g> <g> <path d="M12.381,7.14c-0.337-0.382-0.908-0.45-1.325-0.155l-7.576,5.33c-0.452,0.317-0.561,0.941-0.243,1.393 c0.318,0.453,0.941,0.562,1.393,0.242l6.844-4.814l5.749,6.512c0.191,0.216,0.465,0.338,0.75,0.338 c0.037,0,0.074-0.002,0.111-0.006c0.324-0.036,0.609-0.229,0.766-0.515l5.498-10.048c0.166,0.339,0.504,0.565,0.89,0.565 c0.052,0,0.104-0.004,0.155-0.012c0.547-0.086,0.92-0.597,0.834-1.143L25.83,2.296V2.295l-0.002-0.016 c-0.002-0.013-0.01-0.022-0.014-0.034c-0.021-0.105-0.057-0.205-0.11-0.3c-0.021-0.035-0.045-0.064-0.069-0.097 c-0.027-0.039-0.048-0.082-0.082-0.117c-0.024-0.024-0.057-0.038-0.082-0.06c-0.033-0.026-0.063-0.049-0.099-0.071 c-0.069-0.045-0.144-0.078-0.222-0.104c-0.036-0.012-0.069-0.026-0.107-0.034c-0.105-0.022-0.214-0.028-0.322-0.015 c-0.012,0.001-0.022-0.004-0.035-0.002c-0.002,0-0.002,0.002-0.004,0.002c-0.106,0.017-0.211,0.051-0.31,0.103l-2.437,1.292 c-0.488,0.259-0.674,0.864-0.416,1.353c0.187,0.351,0.556,0.559,0.928,0.53l-4.667,8.53L12.381,7.14z"/> <path d="M25.239,11.618h-1.513c-0.553,0-1,0.447-1,1v12.256h-1.98v-2.739c0-0.553-0.448-1-1-1h-2.133c-0.553,0-1,0.447-1,1v2.739 h-2.6V15.02c0-0.553-0.448-1-1-1h-1.38c-0.552,0-1,0.447-1,1v9.854H7.582v-2.739c0-0.553-0.448-1-1-1H4.95c-0.552,0-1,0.447-1,1 v2.739H2V4.095c0-0.553-0.448-1-1-1c-0.552,0-1,0.447-1,1v21.779c0,0.553,0.448,1,1,1h26.314c0.553,0,1-0.447,1-1s-0.447-1-1-1 H26.24V12.618C26.239,12.066,25.791,11.618,25.239,11.618z M18.612,23.135h0.133v1.739h-0.133V23.135z"/> </g> </g> </g>
</svg>